<?xml version="1.0" encoding="utf-8"?>
<!-- Generator: Adobe Illustrator 19.2.1, SVG Export Plug-In . SVG Version: 6.00 Build 0)  -->
<svg version="1.1" id="layer" xmlns="http://www.w3.org/2000/svg" xmlns:xlink="http://www.w3.org/1999/xlink" x="0px" y="0px"
	 viewBox="0 0 652 652" style="enable-background:new 0 0 652 652;" xml:space="preserve">
<style type="text/css">
	.st0{fill:#002E5A;}
	.st1{fill:#FFFFFF;stroke:#FFFFFF;stroke-width:0.5655;}
	.st2{fill:none;}
	.st3{fill:#002855;}
	.st4{fill:#FFFFFF;}
	.st5{fill:#00692F;}
</style>
<path class="st0" d="M301.1,288.4c0,0-19.6,3.2-32.5,12.6c0,0,4,47.3,32.5,68.3c28.4-21,32.3-68.3,32.3-68.3
	C320.6,291.6,301.1,288.4,301.1,288.4z"/>
<path class="st1" d="M307.5,327.8c-2.8-2.6-3.6-5.9-3.6-8.7c0-1.9,0.7-5.4,3.3-8c1.8-1.8,4.4-3.2,8.9-3.2c1.1,0,2.8,0.1,4.3,0.3
	c1.1,0.2,2,0.3,3.1,0.5c0.3,0,0.3,0.1,0.3,0.3s-0.1,0.6-0.1,1.7c-0.1,1-0.1,2.6-0.1,3.1s-0.1,0.6-0.2,0.6c-0.2,0-0.2-0.2-0.2-0.6
	c0-1.1-0.5-2.4-1.2-3.1c-1-0.9-3.3-1.7-5.9-1.7c-4,0-5.8,1.1-6.8,2.1c-2.1,2-2.6,4.6-2.6,7.7c0,5.7,4.3,10.7,10.6,10.7
	c2.3,0,4-0.2,5.1-1.5c0.6-0.7,1-1.9,1.1-2.5c0.1-0.3,0.1-0.5,0.3-0.5c0.1,0,0.2,0.2,0.2,0.5c0,0.2-0.3,2.7-0.7,3.7
	c-0.2,0.6-0.2,0.6-0.8,0.9c-1.1,0.5-3.4,0.7-5.3,0.7C312.8,331,309.9,330,307.5,327.8L307.5,327.8z"/>
<path class="st1" d="M295.2,318.9c0-11.6,0-13.8-0.1-16.2c-0.1-2.5-0.6-3.7-2.4-4.3c-0.5-0.1-1.4-0.2-1.9-0.2
	c-0.2,0-0.5-0.1-0.5-0.5c0-0.5,0.2-0.6,0.9-0.6c2.5,0,5.8,0.2,6.2,0.2c1.2,0,4.4-0.2,7-0.2c6.9,0,9.4,3.2,10.3,4.3
	c1.2,1.6,2.7,5,2.7,8.9c0,10.6-5.8,17.8-13.6,17.8c-0.2,0-0.9,0-1.1-0.1c-0.2,0-0.6-0.1-0.6-0.6c0-0.6,0.3-0.7,1.5-0.7
	c5.3,0,9.6-5.3,9.6-12.2c0-2.5-0.1-7.5-3.1-11.5c-2.9-4.1-6.3-3.7-7.6-3.7c-0.9,0-1.9,0.1-2.4,0.5c-0.3,0.1-0.5,0.7-0.5,1.5v30.7
	c0,7.1,0,13.1,0.2,16.2c0.1,2.1,0.5,3.8,2.1,4.1c0.8,0.1,2,0.3,2.5,0.3c0.3,0,0.5,0.2,0.5,0.5c0,0.3-0.2,0.6-0.9,0.6
	c-3.1,0-6.6-0.2-6.8-0.2c-0.1,0-3.6,0.2-5.3,0.2c-0.6,0-0.9-0.1-0.9-0.6c0-0.2,0.1-0.5,0.5-0.5c0.5,0,1.1-0.1,1.7-0.3
	c1.1-0.3,1.4-1.9,1.6-4.1c0.2-3.2,0.2-9,0.2-16.2V318.9L295.2,318.9z"/>
<path class="st1" d="M290.5,326.7c0,6,0.2,8.7,1.2,9.4c0.9,0.7,2.3,0.9,6.6,0.9c2.9,0,5.3,0,6.7-1.2c0.7-0.7,1.2-1.7,1.5-2.5
	c0-0.3,0.1-0.6,0.5-0.6c0.2,0,0.3,0.1,0.3,0.6c0,0.5-0.3,2.9-0.8,4.1c-0.3,0.9-0.6,1.1-3.5,1.1c-7.9,0-11.5-0.2-14.7-0.2
	c-0.5,0-3.7,0.1-5.3,0.1c-0.6,0-0.9-0.1-0.9-0.3c0-0.1,0.1-0.2,0.5-0.2c0.5,0,1.1-0.1,1.7-0.1c1.1-0.1,1.4-1,1.6-2.3
	c0.2-1.7,0.2-5,0.2-8.9v-7.2c0-6.4,0-7.6-0.1-8.8c-0.1-1.4-0.6-2-2.4-2.4c-0.5-0.1-1.4-0.1-1.8-0.1c-0.2,0-0.5-0.1-0.5-0.2
	c0-0.2,0.2-0.3,0.9-0.3c2.5,0,5.9,0.1,6.2,0.1c0.2,0,4.3-0.1,5.9-0.1c0.6,0,0.9,0.1,0.9,0.3c0,0.1-0.2,0.2-0.5,0.2
	c-0.3,0-1.1,0-1.8,0.1c-1.6,0.2-2,0.9-2.1,2.4c-0.1,1.4-0.1,2.5-0.1,8.8v7.5H290.5z"/>
<g>
	<path class="st0" d="M292.9,250.5c0,0,2.7,1.2,1,4.5c-1.1,2-5.8,5.1-6.4,8.3c-0.6,2.9-0.5,7.1,4.8,8.7c0,0-3.1-3.2-1.7-6.9
		c1-3.1,4.8-5,6.1-7.2C299.9,252.7,295,249.8,292.9,250.5L292.9,250.5z"/>
	<path class="st0" d="M299.4,273.8c0,0-9.8-1.2-7.4-8.7c1-3.1,4.6-4.9,6.1-7c3.3-5.2,0.3-8.9-3.1-10c0,0,10.1-1.6,7.7,8.8
		c0,0,6.1-5.8-1.2-10.7c0,0,7.9,1,7.7,8.6c-0.1,5.5-6.2,6.3-4.4,8.1c1,1,7.9-1.9,5.1-11.3c0,0,6.7,7.1,0.2,13
		c-3.6,3.3-5.3,6-2.6,8.7c0,0-5.8-0.3-5.9-6c0,0-2.1,2.1-0.6,5.1c0,0-5.9-4.1-1.5-10.9C299.6,261.7,291.3,268.2,299.4,273.8z"/>
	<path class="st0" d="M313.6,257.8c0,0,1,5.1-2.9,8.1c-3.3,2.5-4.5,4.8-1.7,7.1c0,0-1.2-2.5,4-5.2
		C314.9,266.8,317.6,262.9,313.6,257.8z"/>
</g>
<path class="st0" d="M301.1,280.9c10.9,0,12-7.9,12-7.9c-3.2,1.2-7.6,1.9-12,1.9c-4.4,0-8.9-0.6-12-1.9
	C289,273,290.2,280.9,301.1,280.9z"/>
<path class="st0" d="M295.1,283.8c0,0,0.6-4,6-4c5.4,0,6,4,6,4H295.1z"/>
<g>
	<path class="st0" d="M254.8,290.6c-1.9,9.4,0.2,12.9,0.2,12.9l-1.8,2.4c0,0-8.4,2-9.3,15.3c-0.9,13.2,6.7,26.5,6.7,26.5
		s-5.3-11,1.6-25.4c5.4-11.3,2.1-15.7,2.1-15.7l1.1-1.7c0,0,2.5,2.5,0.1,10.6c-2.3,8.1-1.6,26.6,5.2,33.5c0,0-3.2-5-0.7-17.5
		c-0.5-0.1-0.9-0.6-1-1c-0.1-0.7,0.3-1.5,1.1-1.6h0.6c0.1-0.2,0.1-0.6,0.2-0.8c3.2-12.3-3.2-18.8-3.3-18.4c0,0,0.2-2.8-1.1-5.5
		c-0.2-0.5-0.5-1-0.6-1.6c-0.7-2.5-0.6-5.3-0.5-5.5c0.1-0.2,2.6,1.6,3.1,2.5c-1.5,1.2-2,3.3-1.1,5.1c0.5,0.9,1.4,1.6,2.3,1.9
		c0.2,0.1,0.8,0.3,0.2,0.9c-0.6,0.6-0.8,1.1-0.6,1.5c0.6,1,2.4,0.5,4.5-0.7c2.1-1.1,3.7-2.4,3.2-3.3c-0.1-0.3-0.8-0.5-1.6-0.3
		c-0.8,0.1-0.7-0.6-0.6-0.7c0.2-1,0.2-2-0.3-2.9c-1-1.9-3.3-2.7-5.2-1.9c-1-1.7-2.8-2.7-3.7-3.2c-0.2-0.1-0.1-1.9,0.2-3.8
		L254.8,290.6L254.8,290.6z M248.5,320.3c-2.4,9.8-1.2,16.7-1.2,16.7c0.1,0.8-1.2-4.2-0.3-11.9c0.5-3.5,0.6-3.7,0.7-4.8
		C247.9,319.2,248.7,319.3,248.5,320.3z M253.4,314.9c-0.2,0.8-0.8,1.5-1.5,1.8c-0.1,0.1-0.6,0.3-0.1,0.7c0.5,0.3,0.7,0.8,0.7,1.1
		c-0.2,0.8-1.8,0.7-3.6,0.1c-1.8-0.6-3.2-1.4-2.9-2.1c0.1-0.2,0.6-0.5,1.1-0.5c0.6,0,0.5-0.5,0.3-0.7c-0.3-0.7-0.5-1.6-0.1-2.4
		c0.6-1.7,2.3-2.6,3.8-2.1l0.2-0.8c0,0,0.1-0.3,0.5-0.2c0.3,0.1,0.2,0.3,0.2,0.3l-0.3,0.9C253.2,311.8,254,313.4,253.4,314.9
		L253.4,314.9z M259,315.8c-2.8,14.1-0.8,25.1-0.8,25.1c0.2,1.1-2.1-5.8-1.4-17c0.3-5.1,0.7-6.7,0.9-8
		C258,314.5,259.2,314.6,259,315.8L259,315.8z M263.6,307.1c-1.4,0.7-2.7,1.1-2.8,0.8c-0.1-0.3,0.9-1.1,2.3-1.9
		c1.4-0.7,2.7-1.1,2.8-0.8C266.1,305.5,265.1,306.3,263.6,307.1z"/>
	
		<ellipse transform="matrix(0.3019 -0.9533 0.9533 0.3019 -128.6716 459.3132)" class="st0" cx="249.3" cy="317.5" rx="0.5" ry="2.3"/>
</g>
<path class="st0" d="M339.5,344.8c1.6-3.8,3.3-8.4,4.6-13.1c0.6,3.1,3.6,6.2,8.4,3.3c0,0-3.1,0.5-3.1-1.1c0,0,4.4,1.1,5.8-1.9
	c0,0-2.3,1.4-2.5,0.1c-0.2-1.1,4.2-2.1,3.7-6.7c0,0-1.6,4.3-4.4,4c-1-0.1-1.7-1.1,1.1-2.7c3.3-1.8,4.1-4.3,3.6-6.7
	c0,0-1,2.5-1.8,1.2c-0.8-1.2,4.3-6.3-1.7-12.4c0,0,2.7,8.1-0.3,9.5c-1.4,0.6-2.1-2-0.9-3.6c0,0-2.4,1.8-3.2,6.7
	c-0.7,4.3-3.4,6.9-4,7.1c1.4-4.9,2.4-10,2.7-14.7c0.1-1,1.1-1.6,1.9-1.4c0.5,0.1,0.9,0.3,1.1,0.7c-0.3-0.3-0.5-0.8-0.3-1.2
	c0-0.3,0.1-0.7,0.5-1c0.1-0.1,0.3-0.3,0.5-0.3c0.3-0.2,0.9-0.3,1.2-0.2c-0.5-0.1-0.8-0.3-1-0.8c-0.2-0.3-0.3-0.7-0.2-1
	c0-0.2,0-1.1,1.1-1.5c0,0-0.6-0.3-2-0.7c0.1-4.2,3.2-7.4,3.8-8c0.1-0.1,0.2-0.2,0.2-0.5c0-1-2.8-1.9-6.6-2c-3.6-0.1-6.6,0.6-6.7,1.5
	c0,0.1,0.1,0.3,0.2,0.5c0.6,0.7,3.4,4.1,3.3,8.3c-1.6,0.1-2.1,0.5-2.1,0.5c1.1,0.5,1,1.4,1,1.6c0,0.3-0.1,0.7-0.3,1
	c-0.2,0.3-0.7,0.6-1.1,0.7c0.5-0.1,0.9,0,1.2,0.3c0.1,0.1,0.3,0.2,0.5,0.5c0.2,0.3,0.3,0.7,0.3,1c0,0.5-0.1,0.9-0.5,1.2
	c0.3-0.3,0.8-0.6,1.1-0.6c1.5-0.1,1.5,1.8,1.5,1.8c0.5,5-1.1,12.1-3.4,19c-0.8-0.5-1.6-3.3-0.5-6.4c1.2-3.4,2-7.1-0.6-10.9
	c0,0,0.7,7-1.1,6.8c-1.2-0.1-0.8-5.9-0.8-5.9s-0.5,1.6-0.8,1.4c-1.8-1.2,0-6.9,0-6.9c-4.9,4.6-0.9,10.5-2,11.1
	c-1.4,0.7-2.4-4.3-2.4-4.3c-1.9,8.7,4.9,11.1,3.8,12.3c-0.8,1-2.3-0.9-2.6-1.2c0,0,0.1,1.2-0.8,1.4c-1.6,0.2-2.9-2.4-2.9-2.4
	c0,1.4,0.3,3.5,2.5,4.9s3.6,0.3,3.6,1.6c0,1.2-3.5,0.7-3.5,0.7c1.9,2.1,5.4,1.5,6.9,0.6c-1.2,3.5-2.6,6.9-3.8,9.8L339.5,344.8
	L339.5,344.8z M343.4,298.8c0.3,0.1,0.8,0.2,1.1,0.2l0.6,2L343.4,298.8z M346.4,306h-1.2c0-0.9,0.5-1.9,0.6-1.9
	C345.8,304.2,346.4,305.1,346.4,306z M345.4,299.2c0.3,0,0.7,0.1,1,0.1l0.5,2L345.4,299.2z M348.2,306H347c0-0.9,0.6-1.8,0.7-1.8
	S348.2,305.2,348.2,306z M347.7,301.5l-0.3-2.1h0.9L347.7,301.5z M349.9,306.2l-1.2-0.1c0.1-0.9,0.8-1.8,0.9-1.7
	C349.7,304.3,350,305.4,349.9,306.2L349.9,306.2z M348.6,301.4l0.6-2h1L348.6,301.4z M350.1,301.4l0.8-2c0.5,0,0.8-0.1,1.1-0.2
	L350.1,301.4z M353.1,320.9l0.9-0.1c0,0-3.8,5.7-6.4,8.6L353.1,320.9L353.1,320.9z"/>
<path class="st2" d="M228.3,230.2c-0.6,0.5-0.6,1.2-0.1,1.8l8.7,10.5l1.7-2l-8.5-10.2C229.7,229.9,228.9,229.8,228.3,230.2
	L228.3,230.2z M375.1,230.2c-0.6-0.5-1.4-0.3-1.8,0.1l-9.2,11c0.6,0.7,1.1,1.2,1.7,2l9.5-11.3C375.8,231.5,375.7,230.7,375.1,230.2
	L375.1,230.2z"/>
<g>
	<path class="st3" d="M274.7,226.4l8.8,12.6c0,0,6.3-1.8,9.8-1.8c0,0-6.7,14.9-19.2,21.9c-5.8,3.3-6-0.8-2-4.6c2.7-2.7,2.9-7,2.9-7
		l-8.9-8.9C266.1,238.5,271.3,233.2,274.7,226.4L274.7,226.4z"/>
	<path class="st3" d="M255.1,422.4l-2.8,5.7c4.6-1.1,6.3,1,14.4,5.1c8.5,4.3,15.6,0.9,15.6,0.9s7.4-16.5,7.6-19
		c0.1-2.5-3.5-3.2-3.5-3.2c0.5,0.8-46.4-14.4-46.4-88.2c0-53.3,24.4-72.3,24-71.5c-1.6,2.9-1.5,5.1-1.5,5.1l4.1,3.8
		c-0.1-2.3-0.2-3.8,3.1-7.1c2.6-2.6,2.5-5.5,2.5-5.5L256,232.5c0,0-2.8-0.8-5.4,0.9c-10.3,6.7-34.7,30.9-34.7,90.4
		c0,67.2,33.7,93,44,99.6C260,423.4,257.6,422.3,255.1,422.4z"/>
	<path class="st3" d="M296.8,446.9c-21.9,1-37.4-9.7-41.7-14c-0.9-0.9-0.1-1.9-0.1-1.9c1.6-1.7,6.7,4.6,15.4,6.4
		c10.5,2.3,13.9-0.8,13.9-0.8s2.4-5.3,4.5-10.5c0,0,1.8,0.9,10.7,1.4l-9.3,9.3L296.8,446.9L296.8,446.9z M327.3,226.4l-8.8,12.6
		c0,0-6.3-1.8-9.8-1.8c0,0,6.7,14.9,19.2,21.9c5.8,3.3,6-0.8,2-4.6c-2.7-2.7-2.9-7-2.9-7l8.9-8.9C336,238.5,330.8,233.2,327.3,226.4
		z"/>
	<path class="st3" d="M346.9,422.4l2.8,5.7c-4.6-1.1-6.3,1-14.4,5.1c-8.5,4.3-15.6,0.9-15.6,0.9s-7.4-16.5-7.6-19
		c-0.1-2.5,3.5-3.2,3.5-3.2c-0.3,0.8,46.4-14.4,46.4-88.2c0-53.3-24.4-72.3-24-71.5c1.6,2.9,1.5,5.1,1.5,5.1l-4.1,3.8
		c0.1-2.3,0.2-3.8-3.1-7.1c-2.6-2.6-2.5-5.5-2.5-5.5l15.9-15.9c0,0,2.8-0.8,5.4,0.9c10.3,6.7,34.7,30.9,34.7,90.4
		c0,67.2-33.7,93-44,99.6C342.1,423.4,344.4,422.3,346.9,422.4z"/>
	<path class="st3" d="M305.4,446.9c21.9,1,37.4-9.7,41.7-14c0.9-0.9,0.1-1.9,0.1-1.9c-1.6-1.7-6.7,4.6-15.4,6.4
		c-10.5,2.3-13.9-0.8-13.9-0.8s-2.4-5.3-4.5-10.5c0,0-1.8,0.9-10.7,1.4l9.3,9.3L305.4,446.9L305.4,446.9z"/>
</g>
<path d="M300.9,332.9h0.1H300.9 M300.9,307.8v0.1l0.1-0.1"/>
<path class="st4" d="M362.9,285.6l-1-2.9l4.8-1.6l-1.9-5.9l-4.8,1.6l-1-2.9l11.9-4l1,2.9l-4.8,1.6l1.9,5.9l4.8-1.6l1,2.9
	L362.9,285.6z M366,301.4c-0.7-4.5,2-7.6,5.2-8c2.9-0.5,6.7,1.5,7.5,6.1c0.7,4.6-2.3,7.6-5.2,8C370.2,307.9,366.7,305.8,366,301.4z
	 M376,299.8c-0.3-2.4-2.1-3.6-4.4-3.3s-3.5,2.1-3.2,4.5c0.3,2.4,2.1,3.6,4.4,3.3S376.4,302.2,376,299.8z M367.8,330.1v-2.6l8-6.9h-8
	v-3.2h12.4v2.8l-7.6,6.7h7.6v3.2H367.8z M366,346.2c0.7-4.5,4.3-6.6,7.5-6.1c2.9,0.5,6,3.4,5.2,8c-0.7,4.6-4.4,6.6-7.5,6.1
	C368,353.7,365.3,350.7,366,346.2z M376,347.7c0.3-2.4-0.9-4.2-3.2-4.5c-2.3-0.3-4,1-4.4,3.3c-0.3,2.4,0.9,4.1,3.2,4.5
	S375.7,350.1,376,347.7z M373,371.1c-0.8,2.5-2.8,3.4-4.6,2.8c-1.4-0.5-2-1.4-2.3-2.9c-1,1-2.6,0.9-6.6,1.5l1-3.3
	c2.9-0.5,5.4-0.2,5.9-1.8l0.2-0.9l-4.9-1.6l0.9-2.9l11.9,3.8L373,371.1L373,371.1z M368.9,367.2l-0.5,1.6c-0.2,0.8-0.2,1.7,0.8,2
	c0.9,0.3,1.5-0.1,1.9-1.2l0.5-1.5L368.9,367.2L368.9,367.2z M352.1,388.2l4.2-8.1l11.1,5.7l-4.1,8l-2-1l2.7-5.3l-2.4-1.2l-2.6,5.1
	l-2-1l2.6-5.1l-2.7-1.4l-2.7,5.4L352.1,388.2L352.1,388.2z M253.9,394.1l5.8,7.6l-10,7.6l-1.9-2.5l8.1-6.1l-3.8-5.1L253.9,394.1
	L253.9,394.1z M244.4,376.5l1.5,3.1l-1.8,2l2.5,5l2.6-0.2l1.5,2.9l-13.5,1l-1.6-3.3L244.4,376.5L244.4,376.5z M239.2,387.2l5.2-0.6
	l-1.7-3.4L239.2,387.2z M228.5,368.2c-0.9-2.8,0.5-4.4,1.8-4.9c1-0.3,2,0,2.8,0.9c-0.1-1.8,0.9-3.1,2.3-3.5c1.4-0.5,3.7-0.3,4.8,3.2
	l1.8,5.8l-12,3.6L228.5,368.2z M233.9,368.9l-0.5-1.6c-0.3-1.1-1.1-1.4-1.8-1.1c-0.6,0.2-1.1,0.8-0.8,1.9l0.5,1.6L233.9,368.9z
	 M238.9,367.4l-0.6-1.7c-0.5-1.7-1.1-2-2.1-1.8c-0.9,0.2-1.1,1.1-0.8,2.3l0.7,2L238.9,367.4L238.9,367.4z M236.3,345.1
	c0.7,4.5-2.1,7.6-5.3,8c-2.9,0.5-6.7-1.5-7.4-6.1c-0.7-4.6,2.4-7.6,5.3-8C232.1,338.6,235.6,340.7,236.3,345.1L236.3,345.1z
	 M226.2,346.6c0.3,2.4,2,3.7,4.3,3.4c2.3-0.3,3.5-2.1,3.2-4.4c-0.3-2.4-2-3.6-4.3-3.4C227.1,342.5,225.8,344.3,226.2,346.6z
	 M222.1,324.5c0-2.6,1.7-4.1,3.5-4.1c1.4,0,2.4,0.7,3.1,2.1c0.7-1.2,2.1-1.7,5.8-3.5v3.4c-2.7,1.4-5.1,1.9-5.1,3.5v0.9h5.1v3.2
	l-12.4,0.1L222.1,324.5L222.1,324.5z M227.2,326.9v-1.7c0-0.9-0.3-1.7-1.5-1.7c-0.9,0-1.4,0.6-1.4,1.8v1.6H227.2z M236,302.4l-1,9.2
	l-12.4-1.4l1-9l2.3,0.2l-0.7,5.9l2.6,0.3l0.7-5.7l2.3,0.2l-0.7,5.7l2.9,0.3l0.7-6.1L236,302.4L236,302.4z M242.2,277l-2.7,8.8
	l-11.9-3.7l2.7-8.7l2.1,0.7l-1.8,5.7l2.5,0.8l1.7-5.4l2.1,0.7l-1.7,5.4l2.8,0.9l1.8-5.8L242.2,277L242.2,277z M241.1,254.8l-2,4.1
	l9.2,4.5l-1.4,2.8l-9.2-4.5l-2,4.1l-2-1l5.4-10.9C239.1,253.9,241.1,254.8,241.1,254.8z"/>
<path class="st2" d="M304.3,212.4l-3.3-9.7l-3.2,9.7h-11l8.9,6.1l-3.4,10l8.6-6.1l8.6,6.1l-3.3-10l8.8-6.1"/>
<path class="st2" d="M304.3,212.4l-3.3-9.7l-3.2,9.7h-11l8.9,6.1l-3.4,10l8.6-6.1l8.6,6.1l-3.3-10l8.8-6.1"/>
<path class="st3" d="M301.1,194.4c-18.1,7.2-31.3,19.9-31.3,19.9l15,21.8c0,0,8.9-2,16.3-2c7.2,0,16.3,2,16.3,2l15-21.8
	C332.4,214.3,319,201.6,301.1,194.4z M309.7,228.4l-8.6-6.1l-8.6,6.1l3.3-10l-8.8-6.1h10.9l3.2-9.7l3.3,9.7h10.9l-8.8,6.1
	L309.7,228.4L309.7,228.4z"/>
<g>
	<path class="st0" d="M307.2,407.6c-5.4,0.8-12.2,1.2-19.6-0.2c-11.1-2.4-11.3-7.4-9.3-9c0,0-2.3,5,10.5,8.1
		C297.3,408.6,307.2,407.6,307.2,407.6z"/>
	<path class="st0" d="M322,400c-1.6,3.8-14.9,7-30.2,4.9c-11.2-1.6-12.6-5.7-12.6-7c0-2.6,1.7-2.4,7.2-9.3c5.8-7.2,9-15.6,2.4-15.5
		c-1.2,0-2.8,1-5,2.9c-0.3,0.3-2.3,3.2-2.5,2.9c-0.7-0.6,0.9-2.1,1.2-3.8c0-0.3-0.7-2.8,1.1-4.8c1.4-1.5,4.4-2,5.9-1.2
		c1.2,0.7,3.1,0,4.6,2.5c3.8,6.1,0,13.7-8,23.1c-0.6,0.7-1.1,1.6-0.8,1.7c0.5,0.2,1.1,0,1.9-1c0.8-1.1,5.9-10.4,17.6-10.4
		c0,0-9,2.4-9.6,5.5c0,0,11.4-8.6,18.1-2.4c0.8,0.7,5.3-0.9,5.7-1.9c0,0,0.1,2.9-2.1,5c0,0-0.3-1.7-1.7-1c0,0,0.9,0.5,0.8,1.9
		c0,0,0.7,0.6,4.1,0.3c5.8-0.3,8.1-2.9,8.1-2.9c-2.4,7.4-8.7,10.6-11.6,11.3c0,0,1.4,0.3,2.3,0.2C321.8,400.7,322,400,322,400
		L322,400z M314.7,392.6c0,0-0.3-1.2-1.5-0.7c0,0,1.1,0.8,0.8,2.1C314.1,394.1,315.1,393.7,314.7,392.6L314.7,392.6z M303.1,399.9
		c0,0-6.3,1-8.4,0.1c-2.5-1-4.2-2.1-1.9-5.1c0,0-4,2.4-1.1,5.3C293.8,402.6,298.8,401.6,303.1,399.9L303.1,399.9z M308.6,392.7
		c-0.9,0.6-3.5,2.1-8.3,1.9c0,0,2.1,1.2,4.8,0.6C307.7,394.7,308.6,392.7,308.6,392.7z M305,396.6c-1,0.3-3.7,1.5-8.5,0.5
		c0,0,1.9,1.7,4.6,1.5S305,396.6,305,396.6z M312.6,394.2c0,0-0.3-1.5-1.9-0.9c0,0,1.5,1,1,2.7C311.8,396,313.1,395.6,312.6,394.2
		L312.6,394.2z M285.6,372.5c0-0.5-0.3-0.8-0.8-0.8s-0.8,0.3-0.8,0.8s0.3,0.8,0.8,0.8S285.6,373,285.6,372.5z"/>
</g>
<g>
	<path class="st5" d="M228.2,232c-0.5-0.6-0.3-1.4,0.1-1.8c0.6-0.5,1.4-0.3,1.8,0.1l8.5,10.2c1.7-1.9,3.3-3.5,4.8-4.9l-8-9.6
		c-2.8-3.4-7.9-3.8-11.3-1s-3.8,7.9-1,11.3l9.8,11.8c1.4-2,2.7-4,4.2-5.5L228.2,232z"/>
	<path class="st5" d="M381.8,415.4c0.5,0.6,0.3,1.4-0.1,1.8c-0.6,0.5-1.4,0.3-1.8-0.1l-12.3-14.7c-1.4,2-2.7,3.8-4.1,5.7l11.2,13.5
		c2.8,3.4,7.9,3.8,11.3,1c3.4-2.8,3.8-7.9,1-11.3L372.8,394c-1.2,2.1-2.4,4.2-3.6,6.1L381.8,415.4L381.8,415.4z"/>
	<path class="st5" d="M222.2,417c-0.5,0.6-1.2,0.6-1.8,0.1s-0.6-1.2-0.1-1.8l12.8-15.4c-1.2-1.9-2.5-4-3.6-6.1L215.1,411
		c-2.8,3.4-2.4,8.5,1,11.3c3.4,2.8,8.5,2.4,11.3-1l11.2-13.5c-1.4-1.7-2.7-3.6-4.1-5.7L222.2,417L222.2,417z M364.2,241.4l9.2-11
		c0.5-0.6,1.2-0.6,1.8-0.1c0.6,0.5,0.6,1.2,0.1,1.8l-9.5,11.3c1.4,1.7,2.7,3.5,4.1,5.7l10.5-12.7c2.8-3.4,2.4-8.5-1-11.3
		c-3.4-2.8-8.5-2.4-11.3,1l-8.7,10.4C361,237.9,362.6,239.5,364.2,241.4z"/>
	<path class="st5" d="M250.5,368.8c1,2.4,2,4.8,3.1,6.9l24.9-30.1c-1.1-2.3-2.1-4.6-3.1-6.9L250.5,368.8z M254.9,378
		c1.1,2.1,2.4,4.2,3.6,6.1l24.8-30c-1.2-2-2.5-4.2-3.6-6.2L254.9,378z M348.3,375.6c1.1-2.1,2.1-4.4,3.1-6.9l-24.9-30.1
		c-0.9,2.3-1.9,4.6-3.1,6.9L348.3,375.6z M343.5,384.2c1.2-1.9,2.5-4,3.6-6.1L322.2,348c-1.1,2.1-2.3,4.2-3.6,6.2L343.5,384.2z
		 M260.6,259.3c-1.2,1.5-2.6,3.4-4.1,5.7l22.8,27.3c2.3-1,4.5-1.8,6.7-2.5L260.6,259.3L260.6,259.3z M255.1,267.3
		c-1.1,1.9-2.3,4.1-3.4,6.6l19.1,22.7c1.9-1.2,4.1-2.3,6.1-3.3L255.1,267.3L255.1,267.3z M345.5,264.9c-1.5-2.3-2.8-4.2-4.1-5.7
		l-25.6,30.4c2.1,0.7,4.4,1.6,6.7,2.5L345.5,264.9L345.5,264.9z M350.3,273.8c-1.1-2.4-2.3-4.6-3.4-6.6l-21.8,26
		c2,0.9,4.2,2,6.1,3.3L350.3,273.8z"/>
</g>
<g>
	<path class="st3" d="M27.9,346.9c0,2.4,0.1,7.2,0.2,8.9h-6.9c0.3-2.9,0.5-11,0.5-15V327c0-4-0.1-12-0.5-15c2.3,0,9.2-0.3,12.1-0.3
		c10.6,0,16.2,5.9,16.2,12.7c0,8.4-5.3,15.2-18.2,15.2c-1,0-2.1-0.1-3.4-0.1L27.9,346.9L27.9,346.9z M31.3,334.6
		c7.1,0,11.8-2.7,11.8-8.5c0-5.8-3.3-8.6-9.7-8.6c-2,0-3.8,0.1-5.4,0.1v16.7C29.1,334.5,30.2,334.6,31.3,334.6z M89.9,355.9
		c-4.4,0-9,0.1-12.8,0.3c0.3-2.9,0.5-11,0.5-15v-14c0-4-0.1-12-0.5-15c2.5,0,4.9-0.1,6.9-0.3c-0.2,1.8-0.2,6.8-0.2,9.2v25.9
		c0,0.9,0,2.6,0.1,3.7c1.8,0,3.6,0.1,5.5,0.1c5.1,0,9.4-0.1,13.6-0.2c-0.2,1.8-0.3,3.5-0.5,5.7C99,355.9,94.3,355.9,89.9,355.9z
		 M161.7,352c-4.2,3.3-8.9,5-14.3,5c-12.8,0-21.7-10.2-21.7-21.8c0-13.5,9.7-24.1,23-24.1c4,0,9.5,1.6,12.9,4l-1.7,5.9
		c-2.9-2.7-7.4-4.2-11.5-4.2c-9.5,0-16.2,7.1-16.2,16.9c0,11.6,7,17.9,15.7,17.9c5.9,0,10.2-2.4,14.3-6.3L161.7,352L161.7,352z"/>
</g>
<g>
	<path class="st3" d="M435.1,346.9c0,2.4,0.1,7.2,0.2,8.9h-6.9c0.3-2.9,0.5-11,0.5-15V327c0-4-0.1-12-0.5-15c2.3,0,9.2-0.3,12.1-0.3
		c10.6,0,16.2,5.9,16.2,12.7c0,8.4-5.3,15.2-18.2,15.2c-1,0-2.1-0.1-3.4-0.1V346.9L435.1,346.9z M438.5,334.6
		c7.1,0,11.8-2.7,11.8-8.5c0-5.8-3.3-8.6-9.7-8.6c-2,0-3.8,0.1-5.4,0.1v16.7C436.2,334.5,437.3,334.6,438.5,334.6z M474,350.7
		c1.8,0,3.6,0.1,5.5,0.1c5.1,0,9.4-0.1,13.6-0.2c-0.2,1.8-0.3,3.5-0.5,5.7c-3.7-0.2-8.4-0.3-12.8-0.3s-9,0.1-12.8,0.3
		c0.3-2.9,0.5-11,0.5-15v-14.4c0-4.1-0.1-12-0.5-15c3.6,0.2,7.9,0.3,12.3,0.3s8.6-0.1,12.3-0.3c-0.3,1.8-0.5,3.5-0.5,5.5
		c-3.6-0.1-7.5-0.1-11.9-0.1c-1.9,0-3.7,0-5.5,0.1c-0.1,1.1-0.1,2.7-0.1,3.6v9.3h15.2c-0.1,1.6-0.2,3.3-0.2,5.2h-14.9v11.5
		C473.9,348,473.9,349.5,474,350.7z M510.6,338.8v8.3c0,2.4,0.1,7.2,0.2,8.9H504c0.3-2.9,0.5-11,0.5-15v-13.8c0-4-0.1-12-0.5-15
		c2.3,0,9.2-0.3,12.1-0.3c10.6,0,16.2,5.9,16.2,12.7c0,6.1-3.5,10.4-9.2,12.8l6.3,9.3c1.7,2.4,5.1,7.1,6.6,8.9l-7.4,0.8l-11.2-17.6
		h-6.8V338.8z M516.9,333.6c5.8,0,8.9-3.4,8.9-7.5c0-5.8-3.3-8.6-9.7-8.6c-2,0-3.8,0.1-5.4,0.1v15.9H516.9z M560.6,346.9
		c0,2.4,0.1,7.2,0.2,8.9H554c0.3-2.9,0.5-11,0.5-15v-13.5c0-2.6-0.1-6.7-0.2-10.2c-5.5,0-9.8,0.1-14.7,0.1c0.2-1.6,0.2-3.6,0.2-5.5
		c5.7,0.2,11,0.3,17.8,0.3s12.4-0.1,18.2-0.3c-0.3,1.8-0.5,3.5-0.5,5.5c-4.8-0.1-8.9-0.1-14.5-0.1c-0.1,1.4-0.1,3.1-0.1,4.1
		L560.6,346.9L560.6,346.9z M592.1,355.9h-6.9c0.3-2.9,0.5-11,0.5-15V327c0-4-0.1-12-0.5-15c2.5,0,4.9-0.1,6.9-0.3
		c-0.2,1.8-0.2,6.8-0.2,9.2v9.5h22.8v-3.4c0-4-0.1-12-0.5-15c2.5,0,4.9-0.1,7-0.3c-0.2,1.8-0.3,6.8-0.3,9.2v25.9
		c0,2.4,0.1,7.2,0.3,8.9h-7c0.3-2.9,0.5-11,0.5-15v-4.8h-22.8v11.3C591.8,349.3,591.8,354.2,592.1,355.9z"/>
</g>
</svg>
